# xmcd
#
# Track frame offsets:
#	150
#	36620
#	79477
#	109086
#	146498
#	196351
#	226295
#
# Disc length: 3261 seconds
#
# Revision: 1
# Processed by: cddbd v1.5.2PL0 Copyright (c) Steve Scherf et al.
# Submitted via: audiograbber 1.83.01
#
DISCID=610cbb07
DTITLE=Grateful Dead - 82-08-10 Fieldhouse, University of Iowa, Iowa City, IA
DYEAR=1900
DGENRE=
TTITLE0=Space
TTITLE1=Iko Iko
TTITLE2=Truckin'
TTITLE3=Stella Blue
TTITLE4=Sugar Magnolia
TTITLE5=It's All Over Now, Baby Blue
TTITLE6=Johnny B Goode
EXTD=
EXTT0=
EXTT1=
EXTT2=
EXTT3=
EXTT4=
EXTT5=
EXTT6=
PLAYORDER=
